    ::::::::::: ::::    ::::      :::      :::::::: ::::::::::: ::::    ::: :::::::::: 
                      :+:     +:+:+: :+:+:+   :+: :+:   :+:    :+:    :+:     :+:+:   :+: :+:        
                      +:+     +:+ +:+:+ +:+  +:+   +:+  +:+           +:+     :+:+:+  +:+ +:+        
                      +#+     +#+  +:+  +#+ +#++:++#++: :#:           +#+     +#+ +:+ +#+ +#++:++#   
                      +#+     +#+       +#+ +#+     +#+ +#+   +#+#    +#+     +#+  +#+#+# +#+        
                      #+#     #+#       #+# #+#     #+# #+#    #+#    #+#     #+#   #+#+# #+#        
                  ########### ###       ### ###     ###  ######## ########### ###    #### ##########   
                                                



                           Another Fine Release Brought to you from - IMAGiNE                   
                                              http://imaginegroup.me/  
    
********************************************************************************************************************                                
                                                                        XVID  - IMAGiNE
********************************************************************************************************************

Ripper ...........: IMAGiNE                                        IMDB Rating.......:4.6/10                             
Video Codec.......: XVID                                         Release Date......:06/12/09
Audio Codec.......:LameMP3                                           Theatre Date......:14/08/09                                              Runtime.......:1h 42mn
Subtitles.........:NIL                                                 Language..........:ENGLISH
Resolution...... 704 x 304                                    IMDb URL..........:http://www.imdb.com/title/tt1259571/


[color=yellow]DETAILS:[/color]

Video
ID                               : 0
Format                           : MPEG-4 Visual
Format profile                   : AdvancedSimple@L5
Format settings, BVOP            : Yes
Format settings, QPel            : No
Format settings, GMC             : No warppoints
Format settings, Matrix          : Default (MPEG)
Muxing mode                      : Packed bitstream
Codec ID                         : XVID
Codec ID/Hint                    : XviD
Duration                         : 1h 56mn
Bit rate                         : 1 561 Kbps
Width                            : 704 pixels
Height                           : 304 pixels
Display aspect ratio             : 2.35:1
Frame rate                       : 25.000 fps
Resolution                       : 24 bits
Colorimetry                      : 4:2:0
Scan type                        : Progressive
Bits/(Pixel*Frame)               : 0.292
Stream size                      : 1.27 GiB (97%)
Writing library                  : XviD 1.2.1 (UTC 2008-12-04)

Audio
ID                               : 1
Format                           : MPEG Audio
Codec ID                         : 55
Codec ID/Hint                    : MP3
Duration                         : 1h 56mn
Bit rate                         : 40.0 Kbps
Channel(s)                       : 2 channels
Sampling rate                    : 24.0 KHz
Stream size                      : 33.2 MiB (2%)
Alignment                        : Split accross interleaves
Interleave, duration             : 40 ms (1.00 video frame)
Interleave, preload duration     : 500 ms




[color=yellow]NOTES:[/color]

IMAGiNE bringing you another release.....V3 of New Moon
Why? Because the video source is better. If you havent watched it yet , then this is for you. 

PS Just a little whine today,
you know you go and bring someone into your group and then they go and turn on you ...wtf
this has happened 2x's in the last month.You both should be hung by the balls.


[color=yellow]SCREENS:[/color]



[color=yellow]GREETS:[/color]

FLAWL3SS,ViSiON,DEViSE,FUSiON,STG,SecretMythAnd to all the other p2p grps past and present 

Special thanks to Python-Lair for the server :)


[COLOR=RED]Looking for these,cammer,silver supplier.....Have anything to offer????......
Contact us imaginegroup@hushmail.com[/COLOR]
